<?xml version="1.0" standalone="no"?>
<!DOCTYPE svg PUBLIC "-//W3C//DTD SVG 20010904//EN"
 "http://www.w3.org/TR/2001/REC-SVG-20010904/DTD/svg10.dtd">
<svg version="1.0" xmlns="http://www.w3.org/2000/svg"
 width="300.000000pt" height="300.000000pt" viewBox="0 0 300.000000 300.000000"
 preserveAspectRatio="xMidYMid meet">
<metadata>
Created by potrace 1.10, written by Peter Selinger 2001-2011
</metadata>
<g transform="translate(0.000000,300.000000) scale(0.100000,-0.100000)"
fill="#000000" stroke="none">
<path d="M859 1942 c-15 -2 -34 -11 -43 -21 -15 -17 -14 -33 14 -222 38 -254
38 -253 92 -246 63 8 67 23 44 164 l-13 82 60 21 c34 11 67 20 74 20 10 0 13
-30 13 -131 0 -129 0 -131 31 -175 17 -25 46 -55 65 -67 19 -12 37 -31 40 -42
3 -11 21 -36 39 -55 20 -22 35 -49 38 -74 4 -21 18 -56 32 -77 14 -21 25 -45
25 -54 0 -13 20 -15 130 -15 110 0 130 2 130 15 0 9 11 33 25 54 14 21 28 56
32 77 3 25 18 52 38 74 18 19 36 44 39 55 3 11 21 30 40 42 19 12 48 42 65 67
31 44 31 46 31 175 0 101 3 131 13 131 7 0 40 -9 73 -20 l60 -21 -15 -105 -15
-106 23 -19 c33 -27 79 -25 91 4 5 12 23 114 40 226 28 187 29 205 15 221 -20
22 -70 31 -90 16 -9 -7 -20 -45 -27 -93 -7 -46 -17 -83 -23 -83 -5 0 -46 12
-90 25 -89 28 -198 48 -353 66 -145 16 -375 -11 -558 -66 -100 -30 -104 -30
-104 -3 0 12 -5 50 -11 85 -12 68 -24 81 -70 75z m766 -152 c181 -19 171 -16
201 -67 25 -43 26 -49 15 -95 -6 -27 -11 -63 -11 -79 0 -23 -5 -29 -20 -29
-13 0 -28 -12 -38 -30 -9 -16 -25 -30 -34 -30 -10 0 -36 -17 -59 -37 -35 -32
-44 -35 -67 -27 -14 5 -33 21 -41 36 -13 23 -13 30 3 66 22 48 15 89 -21 132
-46 55 -104 32 -134 -52 -11 -32 -10 -42 6 -78 17 -38 17 -45 4 -68 -8 -15
-27 -31 -41 -36 -23 -8 -32 -5 -67 27 -23 20 -49 37 -59 37 -9 0 -25 14 -34
30 -10 18 -25 30 -38 30 -15 0 -20 6 -20 29 0 16 -5 52 -11 79 -11 46 -10 52
15 95 30 50 23 48 186 66 107 12 163 12 265 1z"/>
<path d="M723 1860 c-12 -5 -24 -17 -27 -28 -6 -19 37 -323 49 -342 10 -16 71
-12 86 6 11 14 10 42 -10 178 -27 190 -38 210 -98 186z"/>
<path d="M2218 1853 c-11 -12 -24 -75 -39 -179 -20 -136 -21 -164 -10 -178 15
-18 76 -22 86 -6 11 19 55 323 49 342 -5 17 -41 38 -63 38 -4 0 -15 -8 -23
-17z"/>
<path d="M600 1775 c-19 -23 -23 -160 -5 -175 8 -7 15 -25 15 -41 0 -52 63
-71 94 -28 11 16 10 37 -3 127 -9 59 -20 113 -24 120 -11 17 -62 15 -77 -3z"/>
<path d="M2323 1778 c-4 -7 -15 -61 -24 -120 -13 -90 -14 -111 -3 -127 31 -43
94 -24 94 28 0 16 7 34 15 41 18 15 14 152 -5 175 -15 18 -66 20 -77 3z"/>
</g>
</svg>
