<?xml version="1.0" standalone="no"?>
<!DOCTYPE svg PUBLIC "-//W3C//DTD SVG 20010904//EN"
 "http://www.w3.org/TR/2001/REC-SVG-20010904/DTD/svg10.dtd">
<svg version="1.0" xmlns="http://www.w3.org/2000/svg"
 width="300.000000pt" height="300.000000pt" viewBox="0 0 300.000000 300.000000"
 preserveAspectRatio="xMidYMid meet">
<metadata>
Created by potrace 1.10, written by Peter Selinger 2001-2011
</metadata>
<g transform="translate(0.000000,300.000000) scale(0.100000,-0.100000)"
fill="#000000" stroke="none">
<path d="M538 2470 c-56 -17 -97 -51 -122 -102 -24 -47 -26 -63 -26 -174 l0
-122 -37 10 c-63 17 -204 5 -253 -23 -50 -28 -93 -95 -88 -136 3 -27 4 -27 35
22 54 86 70 92 213 94 168 3 167 1 171 164 3 104 7 127 26 157 38 61 73 75
193 75 114 0 143 -10 190 -60 l25 -27 5 -259 c5 -252 6 -259 28 -281 l23 -23
579 0 579 0 23 23 c22 22 23 29 28 277 5 238 6 255 26 282 41 55 78 68 194 68
91 0 110 -3 140 -22 62 -38 74 -72 78 -210 5 -163 4 -162 172 -164 143 -1 150
-4 211 -94 33 -48 34 -49 37 -23 5 42 -36 106 -86 135 -34 20 -61 27 -130 30
-48 3 -104 1 -124 -5 l-38 -10 0 122 c0 111 -2 127 -26 174 -39 79 -91 105
-214 110 -150 6 -221 -24 -261 -113 -16 -35 -19 -69 -19 -290 l0 -250 -590 0
-590 0 0 250 c0 221 -3 255 -19 290 -22 50 -69 91 -119 105 -43 12 -195 12
-234 0z"/>
<path d="M555 2380 c-11 -4 -31 -20 -45 -35 l-25 -27 -3 -791 c-2 -524 1 -804
7 -828 18 -62 51 -83 138 -88 99 -4 146 10 172 53 21 33 21 42 21 836 0 793 0
803 -21 836 -14 22 -32 37 -57 44 -44 12 -159 12 -187 0z m205 -50 c20 -20 20
-33 20 -830 0 -947 14 -850 -124 -850 -69 0 -88 4 -110 21 l-26 20 0 809 0
809 26 20 c22 17 41 21 110 21 71 0 87 -3 104 -20z"/>
<path d="M2248 2379 c-15 -6 -37 -27 -50 -47 l-23 -37 0 -795 0 -795 23 -37
c28 -45 63 -58 156 -58 82 0 112 12 143 59 l23 34 0 789 c0 844 1 828 -50 873
-18 16 -38 20 -109 22 -47 1 -98 -2 -113 -8z m207 -54 l25 -24 0 -801 0 -801
-25 -24 c-22 -23 -32 -25 -110 -25 -139 0 -125 -98 -125 850 0 948 -14 850
125 850 78 0 88 -2 110 -25z"/>
<path d="M160 1988 c-13 -7 -35 -29 -48 -48 l-23 -34 3 -418 3 -418 33 -32
c32 -33 33 -33 133 -33 l101 0 34 37 34 38 0 420 0 420 -34 38 c-34 37 -35 37
-123 40 -58 2 -96 -2 -113 -10z m193 -39 c12 -7 25 -17 29 -23 10 -14 10 -838
0 -852 -15 -24 -54 -34 -125 -34 -60 0 -79 4 -101 21 l-26 20 0 419 0 419 26
20 c22 17 41 21 101 21 41 0 84 -5 96 -11z"/>
<path d="M2644 1991 c-11 -5 -33 -23 -47 -41 l-27 -32 0 -419 0 -419 34 -38
34 -37 101 0 c100 0 101 0 133 33 l33 32 0 430 0 430 -33 32 c-31 32 -36 33
-120 35 -48 2 -96 -1 -108 -6z m200 -52 l26 -20 0 -419 0 -419 -26 -20 c-46
-36 -200 -27 -226 13 -4 6 -8 198 -8 426 0 228 4 420 8 426 16 24 51 33 123
34 62 0 81 -4 103 -21z"/>
<path d="M898 1710 l-28 -30 0 -181 0 -181 29 -29 29 -29 572 0 572 0 29 29
29 29 0 182 0 182 -29 29 -29 29 -574 0 -573 0 -27 -30z m1192 -210 l0 -200
-590 0 -590 0 0 200 0 200 590 0 590 0 0 -200z"/>
<path d="M899 1191 l-29 -29 0 -237 c0 -253 -4 -279 -52 -322 -51 -47 -244
-56 -311 -14 -58 36 -71 72 -75 208 -5 163 -4 161 -172 164 -143 2 -159 8
-213 94 -31 49 -32 49 -35 22 -5 -41 38 -108 88 -136 49 -28 190 -40 253 -23
l37 10 0 -122 c0 -111 2 -127 26 -174 39 -79 91 -105 214 -110 150 -6 221 24
261 113 16 35 19 69 19 290 l0 250 590 0 590 0 0 -250 c0 -221 3 -255 19 -290
40 -89 111 -119 261 -113 123 5 175 31 214 110 24 47 26 63 26 174 l0 122 38
-10 c20 -6 76 -8 124 -5 69 3 96 10 130 30 47 27 88 88 88 131 0 34 -13 26
-47 -27 -49 -79 -62 -85 -203 -86 -168 -2 -167 -1 -171 -164 -4 -136 -19 -175
-79 -210 -73 -43 -264 -30 -313 21 -43 45 -47 70 -47 317 0 233 0 234 -24 262
l-24 28 -577 3 -576 2 -30 -29z"/>
</g>
</svg>
