<?xml version="1.0" standalone="no"?>
<!DOCTYPE svg PUBLIC "-//W3C//DTD SVG 20010904//EN"
 "http://www.w3.org/TR/2001/REC-SVG-20010904/DTD/svg10.dtd">
<svg version="1.0" xmlns="http://www.w3.org/2000/svg"
 width="300.000000pt" height="300.000000pt" viewBox="0 0 300.000000 300.000000"
 preserveAspectRatio="xMidYMid meet">
<metadata>
Created by potrace 1.10, written by Peter Selinger 2001-2011
</metadata>
<g transform="translate(0.000000,300.000000) scale(0.100000,-0.100000)"
fill="#000000" stroke="none">
<path d="M1374 2985 c-208 -45 -395 -234 -440 -444 -20 -95 -19 -454 1 -540
25 -105 72 -188 152 -271 l73 -74 0 -153 c0 -134 -2 -153 -16 -153 -32 0 -551
-111 -611 -131 -68 -22 -159 -77 -222 -134 -48 -44 -119 -148 -149 -222 -13
-30 -53 -216 -93 -437 -70 -374 -71 -387 -54 -406 18 -20 34 -20 1486 -20
1321 0 1469 2 1483 16 9 8 16 23 16 32 -1 47 -141 755 -159 803 -52 137 -175
271 -306 334 -73 35 -242 78 -582 147 l-113 23 0 150 0 151 73 74 c80 83 127
168 152 273 21 87 21 457 0 544 -25 108 -72 190 -155 274 -147 149 -337 207
-536 164z m268 -105 c80 -25 172 -83 221 -141 39 -45 91 -143 103 -191 l6 -28
-472 0 -472 0 7 28 c35 146 168 284 319 332 83 26 204 26 288 0z m248 -535
l-74 -75 -316 0 -316 0 -74 75 -74 75 464 0 464 0 -74 -75z m-762 -152 c10
-10 100 -13 373 -13 l360 0 60 57 59 56 0 -120 c0 -143 -19 -217 -78 -309 -50
-77 -109 -128 -202 -173 -74 -35 -77 -36 -200 -36 -124 0 -126 0 -200 37 -94
46 -153 96 -202 172 -59 92 -78 166 -78 309 l0 121 47 -44 c26 -25 53 -51 61
-57z m232 -624 c107 -29 262 -19 363 25 16 8 17 -3 17 -157 l0 -165 -37 -32
c-118 -104 -285 -108 -397 -8 l-46 40 0 165 c0 154 1 165 18 157 9 -4 46 -15
82 -25z m-152 -380 c102 -99 215 -136 355 -117 86 12 153 46 229 117 64 60 67
61 107 55 l41 -7 0 -78 0 -79 -127 -169 -127 -170 -29 25 c-87 73 -230 72
-308 -2 l-26 -25 -124 163 -124 163 -5 65 c-8 107 -5 113 60 119 9 0 44 -26
78 -60z m-238 -56 l0 -86 147 -196 147 -196 -2 -52 c-5 -85 13 -132 73 -189
30 -30 66 -55 84 -59 30 -6 31 -8 31 -66 0 -46 4 -63 21 -80 19 -19 30 -20
135 -17 88 2 117 6 124 18 6 9 10 108 9 231 l0 216 145 194 146 194 0 83 c0
64 3 82 14 82 8 0 97 -18 198 -40 256 -57 344 -104 444 -236 62 -83 81 -140
125 -384 22 -118 42 -225 44 -237 l5 -23 -295 0 -295 0 0 215 0 215 -45 0 -45
0 0 -315 0 -315 -677 2 -678 3 -3 318 -2 317 -45 0 -45 0 0 -220 0 -220 -295
0 -295 0 5 22 c3 13 23 124 45 248 49 272 73 333 179 440 93 94 154 121 392
175 107 24 197 44 202 44 4 1 7 -38 7 -86z m609 -432 c14 -10 34 -30 45 -45
19 -25 21 -41 21 -194 l0 -167 -47 -3 -48 -3 0 59 c0 66 -8 78 -61 88 -83 16
-129 66 -129 142 0 72 40 128 102 142 43 9 87 2 117 -19z m-849 -556 l0 -45
-311 0 -311 0 6 31 c3 17 6 38 6 45 0 12 53 14 305 14 l305 0 0 -45z m2150 31
c0 -7 3 -28 6 -45 l7 -31 -312 0 -311 0 0 45 0 45 305 0 c252 0 305 -2 305
-14z"/>
<path d="M1450 580 l0 -50 50 0 50 0 0 50 0 50 -50 0 -50 0 0 -50z"/>
</g>
</svg>
