<?xml version="1.0" standalone="no"?>
<!DOCTYPE svg PUBLIC "-//W3C//DTD SVG 20010904//EN"
 "http://www.w3.org/TR/2001/REC-SVG-20010904/DTD/svg10.dtd">
<svg version="1.0" xmlns="http://www.w3.org/2000/svg"
 width="300.000000pt" height="300.000000pt" viewBox="0 0 300.000000 300.000000"
 preserveAspectRatio="xMidYMid meet">
<metadata>
Created by potrace 1.10, written by Peter Selinger 2001-2011
</metadata>
<g transform="translate(0.000000,300.000000) scale(0.100000,-0.100000)"
fill="#000000" stroke="none">
<path d="M1512 2455 c-37 -16 -57 -53 -65 -122 -8 -74 -40 -128 -118 -201
-103 -97 -156 -193 -174 -317 -8 -47 -29 -61 -40 -25 -4 11 -18 34 -32 50 -26
32 -75 40 -113 20 -26 -14 -105 -135 -144 -222 -58 -129 -71 -188 -70 -338 1
-117 4 -147 28 -225 77 -255 227 -415 462 -495 86 -29 116 -34 226 -38 162 -6
243 12 381 81 189 94 311 248 369 462 31 118 31 320 0 429 -42 145 -158 340
-213 358 -38 13 -75 -5 -104 -52 -14 -22 -30 -38 -35 -35 -6 3 -10 28 -10 55
0 117 -53 280 -141 433 -96 167 -143 208 -207 182z m98 -157 c111 -169 161
-303 176 -472 8 -94 30 -126 88 -126 33 0 70 30 102 85 9 17 15 12 53 -44 120
-176 166 -393 127 -591 -65 -323 -322 -533 -656 -533 -190 -1 -350 63 -475
188 -131 131 -188 280 -188 500 -1 121 1 137 31 224 30 86 86 193 130 249 l18
24 19 -29 c36 -57 68 -83 101 -83 54 0 79 29 98 118 26 123 62 185 156 277 45
44 89 93 98 110 19 38 42 122 42 158 0 46 23 31 80 -55z"/>
<path d="M1110 1381 c-12 -24 -13 -270 -1 -289 16 -26 46 -9 51 28 6 40 29 81
36 64 17 -39 66 -104 79 -104 31 0 27 31 -10 86 l-37 56 26 27 c14 15 26 35
26 44 0 32 -38 18 -79 -29 l-41 -47 0 80 c0 94 -23 133 -50 84z"/>
<path d="M1852 1392 c-9 -7 -12 -45 -10 -158 3 -136 5 -149 22 -152 10 -2 22
2 27 10 12 19 11 265 -1 289 -12 21 -18 23 -38 11z"/>
<path d="M1367 1290 c-36 -29 -52 -83 -38 -130 14 -48 40 -70 88 -77 48 -6 87
9 109 42 15 24 16 28 2 42 -14 14 -19 12 -44 -16 -32 -36 -56 -39 -84 -11 -39
39 -14 130 35 130 9 0 27 -11 41 -25 29 -29 49 -32 58 -9 4 10 -5 27 -23 45
-37 36 -104 41 -144 9z"/>
<path d="M1623 1300 c-25 -10 -47 -45 -38 -60 10 -16 30 -12 50 10 22 24 67
26 85 5 18 -21 6 -30 -62 -44 -85 -18 -110 -60 -63 -106 28 -29 63 -32 106 -9
28 14 32 14 43 -2 9 -11 20 -15 31 -10 14 5 16 13 11 37 -3 18 -6 58 -6 90 0
77 -20 99 -87 98 -27 0 -58 -4 -70 -9z m107 -123 c0 -28 -31 -57 -61 -57 -33
0 -48 22 -29 45 19 23 90 33 90 12z"/>
</g>
</svg>
