<?xml version="1.0" standalone="no"?>
<!DOCTYPE svg PUBLIC "-//W3C//DTD SVG 20010904//EN"
 "http://www.w3.org/TR/2001/REC-SVG-20010904/DTD/svg10.dtd">
<svg version="1.0" xmlns="http://www.w3.org/2000/svg"
 width="192.000000pt" height="182.000000pt" viewBox="0 0 192.000000 182.000000"
 preserveAspectRatio="xMidYMid meet">
<metadata>
Created by potrace 1.10, written by Peter Selinger 2001-2011
</metadata>
<g transform="translate(0.000000,182.000000) scale(0.100000,-0.100000)"
fill="#000000" stroke="none">
<path d="M911 1272 c-50 -27 -71 -73 -71 -157 -1 -70 -1 -70 -40 -97 -49 -34
-52 -51 -48 -247 l3 -153 33 -28 c19 -15 86 -58 150 -94 83 -47 126 -66 152
-66 26 0 69 19 152 66 64 36 131 79 150 94 l33 28 3 153 c4 196 1 213 -48 247
-39 27 -39 27 -40 97 0 84 -21 130 -71 157 -50 27 -308 27 -358 0z m344 -67
c20 -19 25 -34 25 -76 l0 -51 -27 18 c-70 46 -131 74 -163 74 -24 0 -61 -15
-113 -44 l-77 -44 0 49 c0 40 5 55 25 74 23 24 29 25 165 25 136 0 142 -1 165
-25z m-12 -170 l127 -75 0 -159 0 -159 -47 -30 c-110 -69 -211 -122 -233 -122
-22 0 -123 53 -232 122 l-48 30 0 158 0 158 48 30 c115 72 209 122 232 122 14
0 82 -34 153 -75z"/>
<path d="M1039 910 c-22 -22 -48 -40 -58 -40 -23 0 -51 -31 -51 -57 0 -11 9
-32 20 -46 11 -14 20 -40 20 -59 0 -53 19 -72 66 -64 49 8 59 8 108 0 47 -8
66 11 66 65 0 20 9 47 20 61 11 14 20 34 20 46 0 24 -29 54 -53 54 -9 0 -34
18 -56 40 -22 22 -45 40 -51 40 -6 0 -29 -18 -51 -40z m78 -60 c15 -18 34 -30
49 -30 29 0 31 -11 4 -35 -13 -11 -20 -31 -20 -52 0 -31 -2 -34 -22 -27 -13 4
-30 8 -38 8 -8 0 -25 -4 -37 -8 -21 -7 -23 -4 -23 27 0 21 -7 41 -20 52 -27
24 -25 35 4 35 15 0 33 11 48 29 13 17 24 30 26 30 2 1 15 -12 29 -29z"/>
</g>
</svg>
