<?xml version="1.0" standalone="no"?>
<!DOCTYPE svg PUBLIC "-//W3C//DTD SVG 20010904//EN"
 "http://www.w3.org/TR/2001/REC-SVG-20010904/DTD/svg10.dtd">
<svg version="1.0" xmlns="http://www.w3.org/2000/svg"
 width="191.000000pt" height="213.000000pt" viewBox="0 0 191.000000 213.000000"
 preserveAspectRatio="xMidYMid meet">
<metadata>
Created by potrace 1.10, written by Peter Selinger 2001-2011
</metadata>
<g transform="translate(0.000000,213.000000) scale(0.100000,-0.100000)"
fill="#000000" stroke="none">
<path d="M930 1610 c-114 -24 -223 -108 -273 -210 -120 -245 23 -524 291 -571
164 -29 342 62 415 211 127 259 -40 552 -325 574 -35 3 -83 1 -108 -4z m228
-105 c60 -33 110 -84 144 -147 19 -36 23 -58 23 -138 0 -86 -3 -100 -29 -148
-34 -60 -85 -111 -148 -144 -36 -19 -58 -23 -138 -23 -80 0 -102 4 -138 23
-63 33 -114 84 -148 144 -26 48 -29 62 -29 148 0 79 4 102 23 137 67 127 168
186 307 180 66 -3 90 -8 133 -32z"/>
<path d="M954 1426 c-32 -14 -74 -60 -74 -81 0 -30 60 -33 85 -5 37 41 105 14
105 -42 0 -27 -28 -58 -53 -58 -26 0 -47 -29 -47 -66 0 -33 1 -34 40 -34 28 0
40 4 40 14 0 8 9 17 20 21 31 10 68 61 75 105 8 47 -15 103 -55 132 -35 24
-98 31 -136 14z"/>
<path d="M970 1060 c0 -40 0 -40 40 -40 40 0 40 0 40 40 0 40 0 40 -40 40 -40
0 -40 0 -40 -40z"/>
</g>
</svg>
