 <svg  version="1.0" xmlns="http://www.w3.org/2000/svg"  width="256.000000pt" height="83.000000pt" viewBox="0 0 256.000000 83.000000"  preserveAspectRatio="xMidYMid meet">  <g transform="translate(0.000000,83.000000) scale(0.100000,-0.100000)" fill="#ed7707" stroke="none"> <path d="M1833 626 l-28 -24 0 -132 0 -132 28 -24 c41 -35 99 -33 138 5 24 25 29 37 29 80 l0 51 40 0 40 0 0 -51 c0 -43 5 -55 29 -80 39 -38 97 -40 138 -5 l28 24 0 132 0 132 -28 24 c-41 35 -99 33 -138 -5 -24 -25 -29 -37 -29 -80 l0 -51 -40 0 -40 0 0 51 c0 43 -5 55 -29 80 -39 38 -97 40 -138 5z m125 -33 c6 -9 12 -36 12 -59 0 -24 5 -46 11 -49 6 -4 7 -14 3 -24 -4 -9 -10 -38 -13 -66 -5 -42 -10 -52 -34 -63 -40 -19 -82 -7 -97 28 -7 18 -11 65 -8 125 3 89 5 98 28 117 28 23 77 18 98 -9z m267 2 c23 -22 25 -31 25 -125 0 -94 -2 -103 -25 -125 -47 -48 -103 -26 -112 45 -3 25 -9 52 -14 61 -5 9 -4 29 1 45 5 16 12 46 15 67 9 58 67 76 110 32z"/> <path d="M320 575 c0 -20 5 -25 25 -25 20 0 25 5 25 25 0 20 -5 25 -25 25 -20 0 -25 -5 -25 -25z"/> <path d="M125 460 l0 -130 25 0 c24 0 25 2 21 56 l-3 57 46 -5 c43 -5 46 -4 46 18 0 22 -4 24 -45 24 -43 0 -45 1 -45 30 0 30 1 30 55 30 52 0 55 1 55 25 0 25 -1 25 -77 25 l-78 0 0 -130z"/> <path d="M432 553 c2 -22 -1 -28 -14 -27 -11 1 -18 -5 -18 -17 0 -12 7 -19 18 -19 16 0 19 -8 18 -63 -1 -78 12 -97 65 -97 32 0 39 4 39 19 0 14 -8 21 -27 23 -27 3 -28 6 -31 61 l-3 57 31 0 c23 0 30 4 30 20 0 16 -5 19 -30 14 -28 -6 -30 -5 -30 25 0 27 -4 31 -25 31 -22 0 -25 -4 -23 -27z"/> <path d="M1745 547 c-3 -7 -5 -47 -3 -88 2 -58 6 -74 18 -74 12 0 15 16 15 84 0 59 -4 86 -12 88 -7 3 -15 -2 -18 -10z"/> <path d="M2305 547 c-3 -7 -5 -47 -3 -88 2 -58 6 -74 18 -74 12 0 15 16 15 84 0 59 -4 86 -12 88 -7 3 -15 -2 -18 -10z"/> <path d="M320 429 c0 -99 0 -99 25 -99 25 0 25 0 25 94 0 92 0 94 -25 98 l-25 5 0 -98z"/> <path d="M580 430 c0 -100 0 -100 25 -100 24 0 25 2 25 64 0 45 5 69 16 80 20 21 30 20 55 -5 18 -18 21 -30 17 -80 -4 -58 -4 -59 22 -59 l25 0 -3 78 c-3 42 -8 85 -13 94 -13 24 -56 33 -93 19 -20 -7 -32 -8 -34 -1 -2 5 -12 10 -23 10 -17 0 -19 -8 -19 -100z"/> <path d="M829 501 c-23 -24 -29 -38 -29 -74 0 -61 35 -97 95 -97 46 0 93 28 81 48 -9 15 -43 16 -51 2 -9 -14 -48 -13 -63 2 -28 28 -13 38 53 34 37 -1 68 1 71 6 9 15 -17 77 -39 93 -36 25 -85 19 -118 -14z m99 -23 c21 -21 13 -28 -33 -28 -47 0 -58 12 -27 29 23 14 45 14 60 -1z"/> <path d="M1046 509 c-48 -37 -27 -78 52 -98 45 -13 53 -25 23 -40 -13 -7 -24 -6 -37 4 -24 18 -64 19 -64 2 0 -27 36 -47 81 -47 60 0 81 16 77 60 -3 32 -7 36 -55 54 -29 10 -53 23 -53 28 0 15 32 22 51 10 21 -13 59 -16 59 -4 -1 24 -45 52 -83 52 -13 0 -36 -9 -51 -21z"/> <path d="M1240 510 c-39 -39 -24 -74 41 -95 62 -21 68 -54 9 -45 -8 1 -18 6 -21 12 -3 5 -19 8 -34 6 l-27 -3 22 -27 c18 -24 29 -28 69 -28 52 0 81 20 81 56 0 31 -14 44 -61 58 -50 15 -67 46 -25 46 14 0 28 -4 31 -10 8 -13 55 -13 55 -1 0 5 -12 19 -26 30 -34 27 -88 27 -114 1z"/> </g> </svg> 