<?xml version="1.0" standalone="no"?>
<!DOCTYPE svg PUBLIC "-//W3C//DTD SVG 20010904//EN"
 "http://www.w3.org/TR/2001/REC-SVG-20010904/DTD/svg10.dtd">
<svg version="1.0" xmlns="http://www.w3.org/2000/svg"
 width="300.000000pt" height="300.000000pt" viewBox="0 0 300.000000 300.000000"
 preserveAspectRatio="xMidYMid meet">
<metadata>
Created by potrace 1.10, written by Peter Selinger 2001-2011
</metadata>
<g transform="translate(0.000000,300.000000) scale(0.100000,-0.100000)"
fill="#000000" stroke="none">
<path d="M1296 2634 c-290 -52 -545 -212 -725 -454 -295 -397 -295 -963 0
-1360 224 -301 557 -470 929 -470 372 0 705 169 929 470 295 397 295 963 0
1360 -227 305 -561 472 -938 469 -64 0 -152 -7 -195 -15z m373 -69 c425 -69
765 -380 878 -802 23 -87 26 -117 26 -263 0 -147 -3 -176 -26 -265 -36 -132
-119 -299 -202 -403 -36 -45 -70 -80 -75 -77 -4 3 -11 18 -15 34 -11 53 -97
184 -164 251 -79 79 -178 140 -278 172 -40 13 -73 26 -73 29 0 3 20 19 45 37
126 89 201 277 174 441 -24 151 -116 274 -257 344 l-85 42 -117 0 -117 0 -85
-42 c-264 -131 -345 -458 -172 -693 25 -34 65 -75 89 -92 25 -18 45 -35 45
-38 0 -3 -22 -12 -48 -19 -115 -29 -266 -128 -347 -227 -50 -62 -110 -164
-120 -207 -4 -15 -11 -30 -16 -32 -4 -3 -38 32 -74 77 -386 488 -283 1188 229
1553 123 87 309 162 462 184 95 14 222 12 323 -4z m-74 -541 c118 -30 206
-103 259 -214 28 -59 31 -74 31 -165 0 -88 -3 -107 -27 -158 -55 -118 -170
-206 -299 -229 -164 -29 -342 69 -417 229 -24 51 -27 70 -27 158 0 91 3 106
31 165 51 107 142 184 254 214 72 19 123 19 195 0z m113 -860 c192 -39 366
-172 450 -344 64 -131 65 -126 -20 -189 -96 -71 -252 -145 -375 -178 -87 -23
-117 -26 -263 -26 -146 0 -176 3 -263 26 -123 33 -279 107 -375 178 -85 63
-84 58 -20 189 82 168 259 305 443 344 96 20 325 20 423 0z"/>
</g>
</svg>
