<?xml version="1.0" standalone="no"?>
<!DOCTYPE svg PUBLIC "-//W3C//DTD SVG 20010904//EN"
 "http://www.w3.org/TR/2001/REC-SVG-20010904/DTD/svg10.dtd">
<svg version="1.0" xmlns="http://www.w3.org/2000/svg"
 width="450.000000pt" height="450.000000pt" viewBox="0 0 450.000000 450.000000"
 preserveAspectRatio="xMidYMid meet">
<metadata>
Created by potrace 1.10, written by Peter Selinger 2001-2011
</metadata>
<g transform="translate(0.000000,450.000000) scale(0.100000,-0.100000)"
fill="#000000" stroke="none">
<path d="M2119 3299 c-8 -16 -7 -31 5 -63 45 -121 11 -192 -110 -230 -131 -41
-201 -94 -244 -182 -19 -39 -24 -66 -24 -130 -1 -88 10 -114 50 -114 34 0 52
33 47 83 -12 99 51 196 150 230 26 10 68 24 93 33 70 25 129 87 149 158 16 55
16 63 1 124 -9 36 -23 76 -31 89 -20 30 -70 32 -86 2z"/>
<path d="M2480 3299 c-9 -15 -8 -29 0 -52 37 -101 31 -161 -23 -201 -18 -13
-68 -36 -112 -51 -117 -39 -167 -81 -211 -172 -48 -100 -43 -219 10 -238 41
-14 68 21 60 78 -13 92 45 190 129 221 23 9 68 25 100 37 98 35 156 102 171
194 7 44 -15 144 -40 183 -19 29 -69 30 -84 1z"/>
<path d="M2840 3299 c-9 -15 -8 -29 0 -52 37 -101 31 -161 -23 -200 -18 -14
-63 -35 -102 -47 -171 -55 -250 -154 -250 -311 0 -83 12 -109 51 -109 34 0 54
35 48 84 -13 91 45 189 129 220 23 9 68 25 100 37 98 35 156 102 171 194 7 44
-15 144 -40 183 -19 29 -69 30 -84 1z"/>
<path d="M1549 2497 c-55 -37 -62 -71 -56 -312 4 -174 9 -223 26 -283 41 -140
118 -257 231 -349 l71 -58 -371 -5 -371 -5 -19 -25 c-42 -54 -15 -120 85 -208
56 -49 127 -86 210 -107 89 -23 1701 -23 1790 0 83 21 154 58 210 107 100 88
127 154 85 208 l-19 25 -371 5 -371 5 63 50 c34 28 83 76 108 107 l45 58 70 0
c111 1 198 51 248 145 19 35 22 60 25 190 4 163 -3 206 -46 269 -30 44 -98 92
-153 106 -23 6 -40 19 -47 35 -6 14 -26 34 -44 45 -32 19 -51 20 -699 20
l-666 0 -34 -23z m1373 -132 c28 -85 34 -240 14 -335 -29 -139 -121 -298 -223
-389 -128 -115 -272 -157 -508 -149 -152 6 -233 26 -332 84 -74 43 -174 149
-216 230 -59 115 -67 160 -67 399 0 117 3 215 7 218 3 4 299 6 656 5 l649 -3
20 -60z m165 -71 c52 -39 65 -90 61 -246 -3 -130 -4 -136 -31 -172 -38 -49
-68 -67 -122 -74 l-45 -5 29 71 c48 117 64 207 59 342 -3 81 -1 117 6 113 6
-3 25 -16 43 -29z m273 -903 c0 -16 -98 -100 -146 -124 -92 -46 -109 -47 -964
-47 -855 0 -872 1 -964 47 -48 24 -146 108 -146 124 0 5 494 9 1110 9 616 0
1110 -4 1110 -9z"/>
</g>
</svg>
