<?xml version="1.0" standalone="no"?>
<!DOCTYPE svg PUBLIC "-//W3C//DTD SVG 20010904//EN"
 "http://www.w3.org/TR/2001/REC-SVG-20010904/DTD/svg10.dtd">
<svg version="1.0" xmlns="http://www.w3.org/2000/svg"
 width="378.000000pt" height="318.000000pt" viewBox="0 0 378.000000 318.000000"
 preserveAspectRatio="xMidYMid meet">
<metadata>
Created by potrace 1.10, written by Peter Selinger 2001-2011
</metadata>
<g transform="translate(0.000000,318.000000) scale(0.100000,-0.100000)"
fill="#000000" stroke="none">
<path d="M960 2949 c-174 -30 -317 -173 -360 -359 -16 -71 -11 -480 6 -501 7
-8 15 -29 19 -47 9 -45 76 -141 124 -180 52 -41 135 -83 186 -94 70 -14 347
-20 440 -10 84 10 118 19 155 41 8 5 26 14 40 20 86 39 165 134 201 243 23 68
24 87 24 303 0 220 -1 233 -25 295 -49 129 -175 253 -285 279 -63 16 -452 23
-525 10z m517 -98 c64 -22 148 -83 166 -122 4 -8 19 -34 33 -59 24 -43 26 -54
31 -245 5 -199 -3 -302 -29 -379 -15 -46 -128 -166 -156 -166 -9 0 -29 -8 -42
-17 -22 -16 -53 -18 -285 -18 -229 0 -264 2 -292 18 -18 9 -47 24 -64 33 -57
30 -108 94 -138 174 -19 50 -21 76 -21 284 0 191 3 237 18 280 9 28 23 55 30
59 6 4 12 13 12 20 0 16 72 97 87 97 6 0 16 7 23 15 7 8 22 15 34 15 11 1 32
7 46 15 20 11 75 14 260 14 200 0 243 -2 287 -18z"/>
<path d="M2342 2949 c-145 -18 -280 -122 -333 -254 -46 -114 -49 -135 -49
-337 0 -182 2 -203 25 -275 62 -196 188 -302 386 -323 232 -24 459 -5 558 46
90 47 171 143 213 250 22 55 23 73 23 294 0 222 -1 239 -24 305 -54 159 -190
271 -356 295 -82 11 -352 11 -443 -1z m498 -96 c25 -9 52 -22 61 -30 8 -7 20
-13 25 -13 13 0 88 -71 107 -102 9 -15 17 -36 17 -46 0 -10 7 -27 15 -38 21
-28 21 -510 0 -538 -8 -11 -15 -28 -15 -39 0 -28 -70 -115 -116 -144 -86 -55
-94 -56 -354 -57 -304 -1 -331 5 -427 101 -35 35 -63 71 -63 81 0 9 -8 29 -17
42 -16 22 -18 53 -18 285 0 229 2 264 18 293 9 17 24 46 33 63 29 55 93 107
169 137 44 18 76 20 285 21 196 1 242 -2 280 -16z"/>
<path d="M923 1570 c-109 -28 -190 -89 -264 -196 -26 -39 -33 -58 -60 -172 -7
-25 -9 -129 -7 -255 4 -188 7 -218 26 -267 12 -30 31 -67 42 -82 11 -15 20
-31 20 -37 0 -17 94 -93 155 -124 33 -16 87 -36 120 -43 84 -18 423 -18 490 0
124 34 208 92 272 186 67 100 81 169 82 410 1 249 -24 338 -123 447 -79 86
-168 130 -291 143 -155 16 -380 12 -462 -10z m567 -96 c40 -14 72 -36 117 -81
35 -35 63 -70 63 -80 0 -9 8 -25 18 -36 15 -17 17 -46 17 -286 0 -234 -2 -270
-17 -299 -10 -17 -25 -46 -34 -63 -30 -57 -94 -108 -174 -138 -50 -19 -76 -21
-285 -21 -235 0 -289 7 -336 47 -8 7 -20 13 -25 13 -13 0 -94 76 -94 88 0 5
-7 15 -15 22 -8 7 -15 22 -15 34 0 12 -7 31 -15 42 -12 15 -14 64 -15 259 0
219 2 245 21 294 26 70 62 120 113 157 95 68 119 73 401 70 189 -2 228 -5 275
-22z"/>
<path d="M2305 1571 c-96 -28 -126 -45 -187 -100 -67 -62 -112 -135 -139 -228
-16 -57 -19 -100 -19 -268 0 -195 1 -202 29 -283 16 -46 36 -91 45 -101 9 -10
16 -21 16 -25 0 -3 24 -29 53 -57 108 -106 225 -134 524 -127 179 4 191 6 255
33 123 52 212 144 259 267 23 60 24 75 24 288 0 249 -7 299 -55 384 -73 129
-194 209 -340 226 -142 16 -395 11 -465 -9z m583 -109 c71 -36 123 -87 153
-152 11 -25 25 -53 30 -62 5 -10 9 -126 9 -258 0 -242 -3 -265 -41 -330 -5 -8
-13 -24 -19 -35 -21 -46 -114 -125 -146 -125 -11 -1 -30 -7 -44 -15 -37 -21
-496 -21 -524 0 -11 8 -29 15 -40 15 -31 0 -107 56 -141 103 -68 95 -69 97
-69 378 -1 177 3 260 10 270 7 8 15 29 19 47 8 39 125 162 154 162 10 0 24 7
31 14 16 20 69 24 330 22 l225 -2 63 -32z"/>
</g>
</svg>
