<?xml version="1.0" standalone="no"?>
<!DOCTYPE svg PUBLIC "-//W3C//DTD SVG 20010904//EN"
 "http://www.w3.org/TR/2001/REC-SVG-20010904/DTD/svg10.dtd">
<svg version="1.0" xmlns="http://www.w3.org/2000/svg"
 width="1350.000000pt" height="1350.000000pt" viewBox="0 0 1350.000000 1350.000000"
 preserveAspectRatio="xMidYMid meet">
<metadata>
Created by potrace 1.10, written by Peter Selinger 2001-2011
</metadata>
<g transform="translate(0.000000,1350.000000) scale(0.100000,-0.100000)"
fill="#000000" stroke="none">
<path d="M8250 10011 c-106 -22 -239 -127 -302 -238 -52 -92 -63 -128 -88
-288 -14 -89 -13 -4773 1 -4850 31 -174 48 -218 116 -315 36 -51 100 -116 135
-135 12 -8 43 -24 68 -37 l45 -23 560 0 560 0 45 27 c25 15 54 32 65 37 18 8
95 86 137 139 27 34 79 152 96 217 14 53 16 337 19 2500 3 2438 3 2440 -17
2528 -12 49 -25 96 -29 105 -5 10 -17 35 -27 57 -27 58 -97 148 -143 185 -22
17 -66 46 -98 63 l-58 32 -525 2 c-289 0 -541 -2 -560 -6z m1082 -271 c25 -19
49 -42 52 -50 9 -23 32 -60 45 -73 6 -6 11 -20 11 -31 0 -12 7 -39 15 -61 12
-34 14 -377 14 -2450 0 -2250 -1 -2414 -17 -2475 -31 -119 -110 -222 -179
-235 -47 -8 -951 -8 -988 0 -38 9 -111 78 -137 130 -11 22 -28 72 -39 110 -18
68 -19 143 -19 2464 0 2609 -4 2438 53 2561 24 52 106 137 139 143 13 3 244 4
513 3 l490 -1 47 -35z"/>
<path d="M4150 8330 c-54 -9 -116 -32 -132 -48 -7 -7 -17 -12 -23 -12 -23 0
-125 -103 -157 -158 -73 -127 -68 28 -68 -1882 0 -1669 1 -1717 20 -1777 28
-91 42 -113 121 -193 30 -32 69 -64 85 -73 16 -8 49 -26 74 -39 l45 -23 580 0
580 0 70 34 c111 55 183 123 235 225 42 83 41 62 37 1866 -2 949 -7 1740 -11
1758 -28 115 -141 237 -281 303 l-50 24 -540 1 c-297 1 -560 -2 -585 -6z
m1118 -259 c45 -25 76 -62 104 -124 17 -36 18 -145 17 -1718 -1 -1660 -1
-1681 -21 -1726 -30 -68 -89 -121 -152 -137 -38 -9 -1001 -8 -1043 2 -44 10
-116 72 -142 122 l-21 41 0 1700 c0 1596 1 1703 17 1732 36 65 101 119 154
130 13 2 254 4 534 3 l510 -1 43 -24z"/>
<path d="M6150 6980 c-53 -7 -109 -23 -140 -41 -8 -5 -29 -15 -47 -23 -52 -24
-121 -94 -150 -155 l-28 -56 -3 -1134 c-2 -1040 -1 -1139 14 -1185 29 -87 101
-164 194 -208 121 -57 73 -53 720 -53 652 0 595 -5 729 58 73 33 138 96 173
167 l23 45 0 1156 0 1156 -29 56 c-34 69 -96 127 -167 160 -30 13 -72 33 -94
43 -37 17 -76 19 -590 20 -302 1 -575 -2 -605 -6z m1166 -258 c22 -12 50 -31
62 -42 l22 -21 0 -1108 0 -1108 -22 -19 c-13 -11 -41 -28 -62 -39 -38 -19 -60
-20 -610 -20 l-571 0 -57 38 -58 39 0 1109 0 1108 23 21 c31 30 84 53 137 61
25 4 281 6 570 5 l525 -1 41 -23z"/>
<path d="M4166 3892 c-33 -4 -94 -40 -126 -74 -30 -32 -60 -104 -60 -143 0
-68 49 -143 125 -191 28 -18 103 -19 2680 -19 2616 0 2650 0 2680 20 72 47
125 127 125 188 0 41 -30 113 -60 145 -12 12 -39 34 -60 47 l-40 25 -2617 3
c-1440 1 -2631 1 -2647 -1z m5220 -124 c16 -9 38 -32 49 -51 16 -31 17 -40 6
-77 -9 -29 -17 -40 -29 -38 -9 1 -28 -4 -42 -12 -25 -15 -429 -20 -1410 -19
-168 0 -1070 1 -2005 1 -935 0 -1717 3 -1739 8 -52 11 -96 55 -96 94 1 53 45
91 123 105 23 4 1183 7 2577 7 2343 -1 2537 -2 2566 -18z"/>
</g>
</svg>
