<?xml version="1.0" standalone="no"?>
<!DOCTYPE svg PUBLIC "-//W3C//DTD SVG 20010904//EN"
 "http://www.w3.org/TR/2001/REC-SVG-20010904/DTD/svg10.dtd">
<svg version="1.0" xmlns="http://www.w3.org/2000/svg"
 width="300.000000pt" height="300.000000pt" viewBox="0 0 300.000000 300.000000"
 preserveAspectRatio="xMidYMid meet">
<metadata>
Created by potrace 1.10, written by Peter Selinger 2001-2011
</metadata>
<g transform="translate(0.000000,300.000000) scale(0.100000,-0.100000)"
fill="#000000" stroke="none">
<path d="M1230 2470 c-19 -11 -547 -537 -566 -564 -18 -26 -18 -99 0 -134 8
-15 253 -265 545 -557 292 -291 531 -529 531 -530 0 0 -221 0 -491 0 -485 0
-492 0 -505 -21 -11 -16 -12 -24 -1 -37 11 -17 69 -18 850 -17 802 0 840 1
875 19 44 23 83 63 108 111 14 27 18 58 18 130 0 121 -20 182 -81 250 -60 67
-127 100 -218 109 -40 4 -83 14 -96 23 -19 12 -62 103 -174 369 -83 195 -158
362 -167 371 -16 16 -20 16 -65 -5 -38 -17 -66 -22 -138 -22 -116 0 -175 27
-263 119 l-62 64 6 99 c6 94 5 100 -22 152 -32 60 -61 84 -84 71z m25 -130 c4
-17 4 -68 0 -114 -6 -72 -4 -88 13 -123 29 -57 136 -151 210 -186 80 -37 208
-48 287 -23 27 8 50 14 50 13 10 -17 46 -110 43 -112 -2 -1 -24 -12 -50 -23
-32 -14 -48 -27 -48 -39 1 -45 31 -56 88 -30 24 10 45 17 47 15 6 -7 45 -101
45 -108 0 -5 -20 -16 -44 -25 -47 -18 -60 -36 -51 -65 9 -28 31 -31 81 -9 26
11 48 18 49 17 12 -14 46 -109 41 -117 -3 -5 -19 -12 -35 -16 -38 -8 -65 -38
-56 -64 9 -30 39 -34 84 -11 22 11 42 20 44 20 2 0 12 -21 22 -46 22 -57 69
-113 112 -130 18 -8 54 -14 80 -14 135 -2 232 -93 246 -233 l5 -48 -277 3
c-255 3 -279 5 -314 23 -34 19 -797 771 -797 786 0 4 7 13 17 20 33 28 63 111
63 175 0 94 -23 147 -101 228 l-68 71 97 98 c53 53 100 97 104 97 3 0 9 -14
13 -30z m-242 -174 c4 -9 -4 -15 -23 -18 -30 -5 -37 12 -10 24 23 10 27 9 33
-6z m100 -199 c31 -57 17 -168 -28 -217 -14 -15 -26 -6 -133 99 l-118 116 75
77 74 76 56 -60 c31 -33 64 -74 74 -91z m-307 -14 c3 -17 -1 -20 -16 -16 -23
6 -22 5 -14 28 9 21 26 14 30 -12z m1094 -1134 c53 -23 65 -24 333 -27 152 -2
277 -6 277 -9 0 -2 -9 -18 -21 -34 -40 -56 -54 -59 -331 -59 -232 0 -257 2
-298 21 -65 29 -1130 1093 -1130 1128 0 14 10 35 22 48 l22 24 536 -534 c464
-463 542 -537 590 -558z m15 954 c16 -37 14 -43 -11 -26 -25 16 -29 25 -17 36
11 12 20 8 28 -10z m-819 -79 c-3 -9 -6 -21 -6 -27 0 -6 -8 -3 -17 6 -16 16
-16 19 -3 27 22 14 33 12 26 -6z m902 -122 c3 -16 -1 -19 -17 -15 -21 5 -27
23 -14 37 12 11 28 0 31 -22z m82 -194 c0 -15 -3 -17 -19 -8 -13 6 -17 17 -14
30 4 16 8 18 19 9 8 -6 14 -20 14 -31z m470 -554 c0 -38 -15 -42 -34 -10 -9
13 -7 20 8 32 26 19 26 19 26 -22z m-722 -144 l47 -30 -68 0 c-52 0 -66 3 -60
13 8 12 9 17 12 37 2 16 18 12 69 -20z"/>
<path d="M450 2341 c-13 -25 -13 -27 6 -45 13 -13 42 -16 165 -16 154 0 189 7
189 38 0 38 -19 42 -187 42 -150 0 -163 -1 -173 -19z"/>
<path d="M410 1580 c-8 -14 -8 -26 0 -40 10 -19 21 -20 160 -20 139 0 150 1
160 20 8 14 8 26 0 40 -10 19 -21 20 -160 20 -139 0 -150 -1 -160 -20z"/>
<path d="M657 1083 c-14 -13 -6 -53 12 -63 12 -6 114 -10 261 -10 246 0 280 5
280 38 0 40 -15 42 -285 42 -144 0 -265 -3 -268 -7z"/>
</g>
</svg>
