<?xml version="1.0" standalone="no"?>
<!DOCTYPE svg PUBLIC "-//W3C//DTD SVG 20010904//EN"
 "http://www.w3.org/TR/2001/REC-SVG-20010904/DTD/svg10.dtd">
<svg version="1.0" xmlns="http://www.w3.org/2000/svg"
 width="633.000000pt" height="489.000000pt" viewBox="0 0 633.000000 489.000000"
 preserveAspectRatio="xMidYMid meet">
<metadata>
Created by potrace 1.10, written by Peter Selinger 2001-2011
</metadata>
<g transform="translate(0.000000,489.000000) scale(0.100000,-0.100000)"
fill="#000000" stroke="none">
<path d="M2485 3123 c-89 -28 -129 -51 -181 -105 -52 -54 -86 -115 -100 -178
-4 -19 -9 -233 -11 -475 -5 -461 0 -540 38 -621 37 -80 160 -194 209 -194 11
0 37 -7 59 -16 74 -29 333 -6 373 34 7 7 18 12 26 12 17 0 122 99 122 116 0 6
7 17 15 24 8 7 15 22 15 34 0 12 6 28 13 34 8 9 13 76 17 233 l5 221 175 0
175 0 5 -214 c6 -213 9 -232 49 -316 31 -65 154 -162 204 -162 10 0 30 -6 45
-13 42 -22 221 -22 290 -2 94 29 134 52 188 107 52 54 86 115 100 178 4 19 9
233 11 475 6 565 0 601 -108 720 -52 56 -93 80 -189 110 -96 29 -341 8 -382
-33 -7 -7 -18 -12 -26 -12 -17 0 -122 -99 -122 -116 0 -6 -7 -17 -15 -24 -8
-7 -15 -20 -15 -30 0 -10 -7 -31 -15 -46 -12 -23 -15 -69 -14 -232 0 -112 -2
-206 -4 -209 -3 -2 -83 -5 -179 -5 l-173 0 -5 214 c-6 213 -9 232 -49 316 -32
66 -153 161 -206 162 -11 1 -31 7 -45 15 -35 20 -228 19 -295 -2z m296 -182
c46 -20 71 -43 105 -96 18 -29 19 -52 19 -511 0 -461 -1 -482 -20 -520 -23
-45 -53 -72 -108 -96 -52 -24 -242 -25 -271 -3 -11 8 -26 15 -33 15 -23 0 -78
65 -93 110 -11 36 -15 133 -17 470 -3 384 -2 431 14 488 20 71 54 112 118 142
59 27 226 27 286 1z m1233 4 c11 -8 26 -15 33 -15 19 0 83 -68 83 -89 0 -10 7
-35 15 -54 13 -30 15 -105 15 -454 0 -376 -2 -424 -19 -476 -35 -114 -106
-157 -261 -157 -136 0 -184 21 -239 105 l-26 40 0 485 0 485 26 40 c55 84 100
103 244 104 82 0 115 -3 129 -14z"/>
<path d="M1937 2692 l-27 -28 0 -334 0 -334 27 -28 c20 -21 36 -28 63 -28 27
0 43 7 63 28 l27 28 0 331 0 331 -26 31 c-35 42 -88 43 -127 3z"/>
<path d="M4457 2692 l-27 -28 0 -331 0 -331 26 -31 c35 -42 88 -43 127 -3 l27
28 0 335 0 335 -28 27 c-39 37 -89 37 -125 -1z"/>
</g>
</svg>
